<?xml version="1.0" standalone="no"?>
<!DOCTYPE svg PUBLIC "-//W3C//DTD SVG 20010904//EN"
 "http://www.w3.org/TR/2001/REC-SVG-20010904/DTD/svg10.dtd">
<svg version="1.0" xmlns="http://www.w3.org/2000/svg"
 width="593.000000pt" height="593.000000pt" viewBox="0 0 593.000000 593.000000"
 preserveAspectRatio="xMidYMid meet">
<metadata>
Created by potrace 1.14, written by Peter Selinger 2001-2017
</metadata>
<g transform="translate(0.000000,593.000000) scale(0.100000,-0.100000)"
fill="#000000" stroke="none">
<path d="M2819 5851 c-1 -22 -1 -371 0 -399 1 -22 2 -23 113 -20 l113 3 0 213
c0 116 -2 213 -5 213 -3 1 -53 2 -112 3 -92 2 -108 0 -109 -13z"/>
<path d="M4141 5567 c-13 -29 -64 -135 -113 -236 -49 -101 -86 -187 -81 -191
13 -12 162 -110 167 -110 2 0 32 46 66 103 35 56 70 113 80 127 9 14 28 45 42
70 14 25 40 69 58 98 18 29 31 54 29 55 -8 7 -184 114 -204 125 -19 9 -23 5
-44 -41z"/>
<path d="M1549 5543 l-106 -56 41 -69 c23 -38 49 -82 58 -99 90 -153 210 -349
213 -349 2 0 49 22 103 49 l100 48 -53 104 c-30 57 -91 177 -137 267 -52 102
-88 162 -98 162 -8 0 -63 -26 -121 -57z"/>
<path d="M2795 5268 c-143 -19 -303 -59 -385 -95 -243 -106 -386 -205 -552
-379 -51 -54 -149 -185 -178 -237 -42 -76 -90 -175 -90 -185 0 -5 -44 -55 -99
-110 -167 -171 -293 -346 -397 -552 -29 -60 -54 -111 -54 -113 0 -3 -8 -22
-17 -43 -9 -22 -17 -41 -18 -44 0 -3 -15 -48 -33 -100 -31 -92 -68 -244 -79
-325 -3 -22 -8 -43 -11 -47 -4 -3 -106 -43 -227 -88 -121 -45 -269 -100 -330
-123 -164 -61 -223 -107 -272 -214 -33 -72 -38 -100 -38 -218 0 -88 4 -107 28
-160 59 -127 175 -185 317 -159 36 6 66 11 67 10 3 -2 10 -49 18 -106 3 -25 8
-63 11 -85 3 -22 7 -51 9 -65 2 -14 6 -43 10 -65 6 -39 10 -68 20 -150 3 -22
8 -51 10 -65 2 -14 7 -44 10 -67 45 -319 263 -494 491 -394 130 58 187 164
179 333 l-4 82 23 -56 c57 -139 142 -217 255 -233 37 -5 55 -18 115 -75 92
-88 155 -141 241 -205 82 -61 221 -155 229 -155 3 0 22 -12 43 -26 21 -14 92
-52 158 -85 l121 -59 2 -37 c13 -230 206 -450 432 -494 247 -47 497 74 603
291 35 72 42 95 52 169 3 19 6 35 8 36 1 1 67 34 147 73 301 147 587 368 843
652 69 77 227 285 259 341 22 40 22 40 76 36 110 -8 210 25 279 91 43 43 89
139 98 207 3 27 7 50 8 51 1 1 25 4 54 7 l51 5 16 -65 c44 -174 147 -266 288
-258 215 13 340 150 341 375 0 40 -12 168 -18 190 -2 8 -7 35 -10 60 -3 25
-13 81 -21 125 -8 45 -16 95 -18 113 -3 17 -7 39 -10 49 -3 10 -7 34 -10 53
-3 19 -8 49 -11 65 -3 17 -10 55 -15 85 -6 30 -12 66 -15 80 -3 14 -10 54 -16
90 -51 292 -214 492 -443 545 -117 27 -293 13 -377 -30 l-26 -14 -48 109
c-100 229 -240 438 -422 629 -92 98 -115 129 -158 215 -150 301 -365 515 -672
670 -117 58 -304 118 -412 132 -25 3 -57 8 -71 10 -46 9 -294 11 -355 2z
m-1618 -3750 c-3 -8 -6 -5 -6 6 -1 11 2 17 5 13 3 -3 4 -12 1 -19z"/>
<path d="M4945 4862 c-22 -20 -76 -68 -120 -107 -43 -38 -101 -90 -128 -115
-27 -25 -57 -52 -67 -60 -17 -13 -16 -17 26 -70 77 -97 92 -112 106 -104 12 7
362 277 382 295 5 4 -28 51 -74 103 -46 53 -83 96 -84 96 -1 0 -19 -17 -41
-38z"/>
<path d="M617 4743 c-22 -43 -71 -133 -101 -186 -15 -26 -24 -52 -21 -57 3 -6
43 -38 88 -72 45 -35 89 -68 97 -75 21 -17 233 -180 303 -232 l58 -44 17 24
c32 45 153 241 150 243 -5 3 -181 135 -385 289 -100 75 -184 137 -187 137 -2
0 -11 -12 -19 -27z"/>
<path d="M5659 4346 c-4 -4 -305 -70 -374 -82 -16 -3 -36 -7 -44 -10 -8 -2
-70 -16 -139 -30 -70 -14 -129 -27 -133 -30 -6 -3 17 -126 46 -252 5 -19 11
-22 33 -18 35 6 147 30 237 49 39 9 82 18 95 21 14 2 57 11 95 19 39 9 117 26
175 38 58 12 107 23 108 25 2 1 -4 38 -13 81 -9 43 -18 85 -19 93 -2 8 -7 34
-11 58 -6 35 -11 42 -29 42 -13 0 -25 -2 -27 -4z"/>
<path d="M17 3730 c-9 -4 -12 -38 -12 -117 l0 -113 365 0 365 0 0 115 c0 95
-2 115 -15 116 -70 4 -694 3 -703 -1z"/>
<path d="M4751 1406 l-70 -73 291 -291 292 -290 108 106 c60 59 113 108 119
110 25 9 27 7 -271 222 -102 74 -233 169 -292 211 l-106 77 -71 -72z"/>
<path d="M1130 1074 c-91 -75 -185 -153 -210 -174 -25 -21 -65 -55 -90 -75
-25 -20 -49 -40 -53 -44 -6 -6 105 -143 177 -218 13 -15 8 -19 201 163 66 62
160 150 209 197 l89 83 -74 102 c-41 56 -76 101 -79 102 -3 0 -80 -61 -170
-136z"/>
<path d="M4190 953 c-58 -46 -109 -88 -114 -93 -7 -7 392 -592 415 -606 7 -4
156 91 208 132 2 2 -13 32 -34 66 -51 83 -345 549 -359 569 -9 14 -25 4 -116
-68z"/>
</g>
</svg>
